HIERARCHY
ROOT ui
{
	 OFFSET 0 0 0
	 CHANNELS 3 XPosition YPosition Z Position
	 EndSite
	 {
	 OFFSET 0 -1 0
	 }
}
ROOT li
{
	 OFFSET 0 0 0
	 CHANNELS 3 XPosition YPosition Z Position
	 EndSite
	 {
	 OFFSET 0 -1 0
	 }
}
ROOT ul
{
	 OFFSET 0 0 0
	 CHANNELS 3 XPosition YPosition Z Position
	 EndSite
	 {
	 OFFSET 0 -1 0
	 }
}
ROOT ll
{
	 OFFSET 0 0 0
	 CHANNELS 3 XPosition YPosition Z Position
	 EndSite
	 {
	 OFFSET 0 -1 0
	 }
}
ROOT tt
{
	 OFFSET 0 0 0
	 CHANNELS 3 XPosition YPosition Z Position
	 EndSite
	 {
	 OFFSET 0 -1 0
	 }
}
ROOT tb
{
	 OFFSET 0 0 0
	 CHANNELS 3 XPosition YPosition Z Position
	 EndSite
	 {
	 OFFSET 0 -1 0
	 }
}
ROOT td
{
	 OFFSET 0 0 0
	 CHANNELS 3 XPosition YPosition Z Position
	 EndSite
	 {
	 OFFSET 0 -1 0
	 }
}
ROOT v
{
	 OFFSET 0 0 0
	 CHANNELS 3 XPosition YPosition Z Position
	 EndSite
	 {
	 OFFSET 0 -1 0
	 }
}
ROOT bn
{
	 OFFSET 0 0 0
	 CHANNELS 3 XPosition YPosition Z Position
	 EndSite
	 {
	 OFFSET 0 -1 0
	 }
}
MOTION
Frames: 19
Frame Time: 0.002
-0.007958632946014404	0.0012186830043792725	0		0.5214102172851562	-2.489078857421875	0		-1.21948583984375	-0.02444725227355957	0		-0.27585321044921873	-3.095081298828125	0		2.203201416015625	-1.3924078369140624	0		3.504219970703125	-0.40998681640625	0		4.7386025390625	0.002377500057220459	0		5.9713427734375	0.5721668701171875	0		-0.3851661376953125	5.87060009765625	0		
-0.007850427150726319	0.0010356040000915527	0		0.48671527099609374	-2.476731201171875	0		-1.2573580322265625	-0.02306094741821289	0		-0.4034742431640625	-3.07733056640625	0		2.20331591796875	-1.3925809326171874	0		3.5124501953125	-0.4022759704589844	0		4.74280126953125	0.008154666900634766	0		5.9571669921875	0.5741507568359375	0		-0.43907827758789064	5.871232421875	0		
-0.007748541831970215	8.535799980163574E-4	0		0.5075900573730469	-2.4932255859375	0		-1.2532110595703125	-0.020312517166137696	0		-0.39827587890625	-3.072591552734375	0		2.22041064453125	-1.3940045166015624	0		3.522341796875	-0.41658309936523436	0		4.7400849609375	0.020049741744995117	0		5.96209130859375	0.5512379150390625	0		-0.388826416015625	5.88328955078125	0		
-0.024659822463989258	-6.942900270223617E-5	0		0.48583877563476563	-2.4850693359375	0		-1.2350203857421875	-0.014777023315429688	0		-0.42191567993164064	-3.057414306640625	0		2.22767578125	-1.3842706298828125	0		3.534066162109375	-0.3759010009765625	0		4.7524873046875	0.039730564117431644	0		5.97156396484375	0.5714420776367187	0		-0.35470803833007813	5.887591796875	0		
0.0454879150390625	0.0016954230070114135	0		0.49220428466796873	-2.470333251953125	0		-1.2408336181640625	-0.00987882423400879	0		-0.3976361083984375	-3.048960205078125	0		2.254875	-1.379830078125	0		3.512077880859375	-0.38270367431640623	0		4.7528388671875	0.05560732650756836	0		5.96678955078125	0.5939285278320312	0		-0.3707858581542969	5.87965283203125	0		
-0.03240538787841797	6.991090178489685E-4	0		0.49032159423828126	-2.473469970703125	0		-1.244765380859375	-0.014009371757507324	0		-0.4165238952636719	-3.0528525390625	0		2.248143798828125	-1.3718681640625	0		3.523406005859375	-0.36999642944335936	0		4.75296630859375	0.055499290466308596	0		5.9668798828125	0.5937723999023438	0		-0.3707395935058594	5.8794736328125	0		
0.04764845657348633	-0.0066770601272583005	0		0.490513427734375	-2.4736328125	0		-1.2574444580078126	-0.00300449800491333	0		-0.39114501953125	-3.04140771484375	0		2.248318359375	-1.372003662109375	0		3.52764013671875	-0.3651729736328125	0		4.74823974609375	0.06347716903686523	0		5.95965234375	0.5610341796875	0		-0.40573394775390625	5.8758251953125	0		
-0.03206741333007813	3.6141398549079893E-4	0		0.4668170166015625	-2.46843017578125	0		-1.257259765625	-0.0031915030479431152	0		-0.41572650146484375	-3.029205322265625	0		2.251570556640625	-1.3691781005859376	0		3.530342529296875	-0.331314697265625	0		4.75279931640625	0.08832656860351562	0		5.96711865234375	0.5935250244140625	0		-0.40466180419921877	5.87463720703125	0		
0.046173664093017576	0.0010268349647521973	0		0.49610543823242187	-2.467019287109375	0		-1.2529952392578125	-4.339900016784668E-4	0		-0.43922708129882815	-3.014013916015625	0		2.247250244140625	-1.340228759765625	0		3.53547705078125	-0.33749014282226564	0		4.7612275390625	0.10212444305419922	0		5.95993896484375	0.560817626953125	0		-0.3704700927734375	5.8789580078125	0		
-0.028530721664428712	0.004000331878662109	0		0.49640362548828126	-2.467164794921875	0		-1.2655714111328125	0.010585427284240723	0		-0.4107276611328125	-3.001596923828125	0		2.269617431640625	-1.3346763916015625	0		3.5550380859375	-0.317872802734375	0		4.756603515625	0.11012411499023438	0		5.955970703125	0.5816385498046875	0		-0.3703108215332031	5.8787978515625	0		
0.0467252197265625	7.288129925727844E-4	0		0.5367470092773438	-2.466903076171875	0		-1.269336669921875	0.006480473041534424	0		-0.4361884155273438	-2.9883603515625	0		2.258053955078125	-1.3266075439453124	0		3.5454287109375	-0.31181375122070315	0		4.76610546875	0.12391582489013672	0		5.95478515625	0.5867899169921875	0		-0.40516400146484377	5.87517236328125	0		
-0.03096629524230957	-2.3778699338436126E-4	0		0.4960699768066406	-2.469417724609375	0		-1.2730516357421875	0.0033864879608154295	0		-0.3957624816894531	-2.985103515625	0		2.28251904296875	-1.319074462890625	0		3.5429580078125	-0.29885888671875	0		4.76052392578125	0.12993307495117187	0		5.9513466796875	0.5695263671875	0		-0.43800064086914064	5.869525390625	0		
0.04437108612060547	-0.00248963189125061	0		0.49748757934570315	-2.467555419921875	0		-1.2726907958984375	0.0032446980476379395	0		-0.44903341674804687	-2.96242919921875	0		2.247153076171875	-1.3016400146484375	0		3.558155517578125	-0.31017160034179686	0		4.76397314453125	0.1358115692138672	0		5.951603515625	0.569418701171875	0		-0.4367340393066406	5.8673779296875	0		
-0.027160200119018554	0.003470000982284546	0		0.50399658203125	-2.460760498046875	0		-1.2682606201171875	0.006056238174438477	0		-0.4004354553222656	-2.950271240234375	0		2.28376953125	-1.28728173828125	0		3.573245849609375	-0.2634773864746094	0		4.77665576171875	0.155548095703125	0		5.95901025390625	0.5690352783203125	0		-0.35407342529296876	5.888025390625	0		
0.048204021453857424	2.3882099986076354E-4	0		0.50440966796875	-2.460866943359375	0		-1.2887958984375	0.010256307601928711	0		-0.46859332275390625	-2.9213515625	0		2.30625	-1.28271044921875	0		3.54947265625	-0.27520989990234374	0		4.77729736328125	0.17145826721191407	0		5.9519619140625	0.5362848510742187	0		-0.4029150695800781	5.87365087890625	0		
-0.026348678588867188	0.003263062000274658	0		0.4929261474609375	-2.4537861328125	0		-1.25345068359375	0.005633711814880371	0		-0.40703985595703124	-2.912364501953125	0		2.294885498046875	-1.2676295166015625	0		3.578133056640625	-0.2587273559570312	0		4.78179541015625	0.1773020324707031	0		5.9444404296875	0.5415948486328125	0		-0.41665756225585937	5.86376318359375	0		
-0.0040079917907714846	-0.001154283046722412	0		0.4933209533691406	-2.453876220703125	0		-1.2960877685546874	0.003193674087524414	0		-0.46438552856445314	-2.8945849609375	0		2.307552490234375	-1.2499073486328125	0		3.578535400390625	-0.25882781982421876	0		4.7814091796875	0.1912109375	0		5.94472802734375	0.541406982421875	0		-0.4361577453613281	5.868974609375	0		
0.004346046924591064	-0.003352897882461548	0		0.5055818481445312	-2.4611376953125	0		-1.25672216796875	0.0015399099588394164	0		-0.45385797119140625	-2.883811767578125	0		2.315077392578125	-1.240109130859375	0		3.5694287109375	-0.22478680419921876	0		4.7889892578125	0.20399089050292968	0		5.94500390625	0.5411949462890625	0		-0.40165914916992185	5.87338916015625	0		
-2.229059934616089E-4	0.0016514990329742432	0		0.47415411376953126	-2.4447353515625	0		-1.29534716796875	0.003068195104598999	0		-0.4881400451660156	-2.85735498046875	0		2.291677001953125	-1.2228463134765626	0		3.59258447265625	-0.23823892211914063	0		4.78446728515625	0.21194293212890625	0		5.94386328125	0.5462023315429687	0		-0.4012397155761719	5.8733232421875	0		
